<?xml version="1.0" encoding="UTF-8"?>
<svg xmlns="http://www.w3.org/2000/svg" viewBox="0 0 293.76 195.84" preserveAspectRatio="none">
  <defs>
    <style>.cls-1{fill:#000;fill-rule:evenodd;}</style>
    <g id="binlodTileCell">
    <path class="cls-1" d="m1.2,0c.73.3.29,0,.72.48h-.24l-.48-.48Z"/>
    <path class="cls-1" d="m22.32,0l1.2.24-.24.72c-.86-.17-.69-.17-1.2-.48v-.24l.24-.24Z"/>
    <path class="cls-1" d="m40.08,0h.96l-.48.48-.48-.48Z"/>
    <path class="cls-1" d="m91.68,0l1.44.72c-.4.64-.8,1.28-1.2,1.92l-.48-.48c.37-.98.14-1,.24-2.16Z"/>
    <path class="cls-1" d="m102.24,0h.96v.96h-.96v-.96Z"/>
    <path class="cls-1" d="m145.68,0h.96v.72l-.48.24-.72-.48.24-.48Z"/>
    <path class="cls-1" d="m34.08.24c.86.43.28-.13.72.72h-.24l-.48-.72Z"/>
    <path class="cls-1" d="m48.48.24c.86.43.28-.13.72.72h-.72V.24Z"/>
    <path class="cls-1" d="m55.92.24h.96l-.24,1.2-.72-.48V.24Z"/>
    <path class="cls-1" d="m134.16.48h.48c-.33.46-.02.14-.48.48v-.48Z"/>
    <path class="cls-1" d="m30.24.96c.52.53.47.47.24,1.2h-.24V.96Z"/>
    <path class="cls-1" d="m38.16.96c.46.33.14.02.48.48l-.48-.48Z"/>
    <path class="cls-1" d="m84.24.96c1.01.37.59-.04.96.96-1.01-.37-.59.04-.96-.96Z"/>
    <path class="cls-1" d="m12.48,1.2h.48c-.16.56-.32,1.12-.48,1.68h-.96l.48-.96.48-.72Z"/>
    <path class="cls-1" d="m17.04,1.44h.72v.72l-.48.24-.48-.48.24-.48Z"/>
    <path class="cls-1" d="m54.96,1.44l.24.48-.24-.48Z"/>
    <path class="cls-1" d="m6.96,1.68h.48c-.33.46-.02.14-.48.48v-.48Z"/>
    <path class="cls-1" d="m142.56,1.68h.72v.96h-.24l-.72-.48.24-.48Z"/>
    <path class="cls-1" d="m26.4,1.92l.96.48v.72c-.88-.25-.71-.2-1.2-.72l.24-.48Z"/>
    <path class="cls-1" d="m56.4,1.92l.72.24c-.33.86-.22.76-.96,1.2l.24-1.44Z"/>
    <path class="cls-1" d="m48.96,2.16c.73.47.25.08.48.72l-.48-.72Z"/>
    <path class="cls-1" d="m53.76,2.16c1.08.18.48.25,1.44.24v.48h-.96l-.48-.72Z"/>
    <path class="cls-1" d="m94.56,2.16c.86.43.28-.13.72.72h-.24l-.48-.72Z"/>
    <path class="cls-1" d="m99.36,2.16h.48c-.33.46-.02.14-.48.48v-.48Z"/>
    <path class="cls-1" d="m88.08,2.4c-.1.22.19.16-.24.48l.24-.48Z"/>
    <path class="cls-1" d="m51.84,2.64l.96.48-.48.48h-.48v-.96Z"/>
    <path class="cls-1" d="m64.32,2.64c.73.46.39.05.72.96l-.72.48h-.24l-.48-1.2.72-.24Z"/>
    <path class="cls-1" d="m118.08,2.64l.24.48-.24-.48Z"/>
    <path class="cls-1" d="m107.28,2.88h.48c-.33.46-.02.14-.48.48v-.48Z"/>
    <path class="cls-1" d="m7.2,3.12l.96.48v.48l-.48.24-.72-.72.24-.48Z"/>
    <path class="cls-1" d="m17.28,3.36l.24.72-.48-.24.24-.48Z"/>
    <path class="cls-1" d="m34.8,3.6h.72v.48l-.72.24v-.72Z"/>
    <path class="cls-1" d="m40.8,3.6h.72l-.72,1.44h-.24l.24-1.44Z"/>
    <path class="cls-1" d="m49.44,3.84h.48c-.33.46-.02.14-.48.48v-.48Z"/>
    <path class="cls-1" d="m104.4,3.84h.72v.96l-1.2.24-.48-.24.24-.48.72-.48Z"/>
    <path class="cls-1" d="m42.72,4.08l1.2.72v.24l-.48.48-.72-.24v-1.2Z"/>
    <path class="cls-1" d="m18.72,4.32h.48c-.33.46-.02.14-.48.48v-.48Z"/>
    <path class="cls-1" d="m27.36,4.32l.24.48-.24-.48Z"/>
    <path class="cls-1" d="m121.44,4.32h.72l-.48.72h-.24v-.72Z"/>
    <path class="cls-1" d="m21.36,4.56c.73.3.29,0,.72.48h-.24l-.48-.48Z"/>
    <path class="cls-1" d="m32.16,4.56h.48c-.43.49,0,.17-.72.48l.24-.48Z"/>
    <path class="cls-1" d="m64.56,4.56l.48.96-1.2.48.72-1.44Z"/>
    <path class="cls-1" d="m129.6,5.04c.49.43.17,0,.48.72h-.48v-.72Z"/>
    <path class="cls-1" d="m140.4,5.04c.46.33.39.23.72.72-.96-.34-.43-.1-.72-.72Z"/>
    <path class="cls-1" d="m34.08,5.52h.48c-.33.46-.02.14-.48.48v-.48Z"/>
    <path class="cls-1" d="m112.32,5.52h.48c-.33.46-.02.14-.48.48v-.48Z"/>
    <path class="cls-1" d="m135.36,5.52l.72.48v.24h-.72v-.72Z"/>
    <path class="cls-1" d="m19.68,5.76l.72.48-.96.48.24-.96Z"/>
    <path class="cls-1" d="m43.44,5.76h.72c-.24.56-.48,1.12-.72,1.68h-.24l-.72-.72.48-.72.48-.24Z"/>
    <path class="cls-1" d="m5.04,6c.87.15.73.1,1.2.48v.24h-.72l-.48-.72Z"/>
    <path class="cls-1" d="m61.2,6h.48c-.42.23-.05.22-.48,0Z"/>
    <path class="cls-1" d="m126.96,6c.49.43.17,0,.48.72l-.48-.72Z"/>
    <path class="cls-1" d="m17.04,6.24l.24.48-.24-.48Z"/>
    <path class="cls-1" d="m60.24,6.24h.72l-.48.48-.24-.48Z"/>
    <path class="cls-1" d="m80.64,6.24c.73.47.25.08.48.72h-.24l-.48-.24.24-.48Z"/>
    <path class="cls-1" d="m2.64,6.48c.39.6.24.04,0,.72h-.24l.24-.72Z"/>
    <path class="cls-1" d="m22.56,6.48c.46.33.14.02.48.48l-.48-.48Z"/>
    <path class="cls-1" d="m27.36,6.72c.63.43.33.01.24.72h-.24v-.72Z"/>
    <path class="cls-1" d="m46.32,6.96h.48c-.33.46-.02.14-.48.48v-.48Z"/>
    <path class="cls-1" d="m36.48,7.2l.24.72h-.24l-.24-.24.24-.48Z"/>
    <path class="cls-1" d="m53.76,7.2c.49.33.39.27.72.72l-1.2.24.48-.96Z"/>
    <path class="cls-1" d="m72.24,7.2l.72.48v.24h-.24l-.48-.72Z"/>
    <path class="cls-1" d="m105.6,7.2l.24.48-.24-.48Z"/>
    <path class="cls-1" d="m130.8,7.2h.72v.24l-.72.24v-.48Z"/>
    <path class="cls-1" d="m69.84,7.44l.24.48-.24-.48Z"/>
    <path class="cls-1" d="m76.56,7.44h.96v1.2h-.96l-.24-.48.24-.72Z"/>
    <path class="cls-1" d="m116.64,7.44h.48v.24l-.96.48v-.48l.48-.24Z"/>
    <path class="cls-1" d="m124.8,7.44c.43.78.63.48-.24.96l.24-.96Z"/>
    <path class="cls-1" d="m3.6,7.92h.48c-.43.86.13.28-.72.72l.24-.72Z"/>
    <path class="cls-1" d="m10.32,7.92l.72.48-.24.48-.48-.48v-.48Z"/>
    <path class="cls-1" d="m25.68,7.92l.24.48-.24-.48Z"/>
    <path class="cls-1" d="m103.92,7.92l.96.48-.48.48-.72-.24.24-.72Z"/>
    <path class="cls-1" d="m134.64,7.92h.48l-.24.72h-.24l-.24-.24v-.24l.24-.24Z"/>
    <path class="cls-1" d="m21.12,8.16c.46.33.14.02.48.48l-.48-.48Z"/>
    <path class="cls-1" d="m55.68,8.16h.72c-.21,1.05.47.77.24,1.92-.84-.31-.74-.32-1.68-.24v-1.2l.72-.48Z"/>
    <path class="cls-1" d="m126.24,8.16h.48c-.33.46-.02.14-.48.48v-.48Z"/>
    <path class="cls-1" d="m141.36,8.16h.72v.72h-.96l.24-.72Z"/>
    <path class="cls-1" d="m52.56,8.4l.24.48-.24-.48Z"/>
    <path class="cls-1" d="m85.44,8.4l1.2.24-.24.48c-.68-.44-.64-.14-.96-.72Z"/>
    <path class="cls-1" d="m120,8.4h.48c-.42.23-.05.22-.48,0Z"/>
    <path class="cls-1" d="m131.28,8.4l.24.72-.48-.24.24-.48Z"/>
    <path class="cls-1" d="m38.16,8.64c.73.3.29,0,.72.48h-.24l-.48-.48Z"/>
    <path class="cls-1" d="m12.24,8.88l.72.24-.72.96-.48-.48.48-.72Z"/>
    <path class="cls-1" d="m28.56,8.88l.96.48-.24.48h-.96l.24-.96Z"/>
    <path class="cls-1" d="m89.04,8.88c.38.74.26.38.24,1.44l-.48-.24-.24-.48.48-.72Z"/>
    <path class="cls-1" d="m34.56,9.12l.24.48-.24-.48Z"/>
    <path class="cls-1" d="m53.28,9.12h.72l-.48.48-.24-.48Z"/>
    <path class="cls-1" d="m.96,9.36l.48.72-.48-.72Z"/>
    <path class="cls-1" d="m51.36,9.36l.24.48h-.48l.24-.48Z"/>
    <path class="cls-1" d="m114.96,9.36l.48.48-.48.72c-.58-.46-.39-.15-.72-.96l.72-.24Z"/>
    <path class="cls-1" d="m82.8,9.6h.48c-.33.46-.02.14-.48.48v-.48Z"/>
    <path class="cls-1" d="m13.92,9.84h.96v.72l-.96.48v-1.2Z"/>
    <path class="cls-1" d="m21.12,9.84c.28.68.18.24-.24.72l.24-.72Z"/>
    <path class="cls-1" d="m120.96,9.84c.67.37.56.35.96.96h-.96v-.96Z"/>
    <path class="cls-1" d="m46.32,10.08l.72.48v.24h-.72v-.72Z"/>
    <path class="cls-1" d="m73.68,10.08h.96l-.48.96h-.48v-.96Z"/>
    <path class="cls-1" d="m81.36,10.08l.96.48c-.34,1.2-.66,1.09-1.44.48l.48-.96Z"/>
    <path class="cls-1" d="m90.72,10.08c.53.61.29.14.24.96l-.48-.48.24-.48Z"/>
    <path class="cls-1" d="m.72,10.32c.87.4.56.07.96.96l-1.2-.48.24-.48Z"/>
    <path class="cls-1" d="m18.72,10.56h.48c-.43.49,0,.17-.72.48l.24-.48Z"/>
    <path class="cls-1" d="m72.72,10.56h.48c-.33.46-.02.14-.48.48v-.48Z"/>
    <path class="cls-1" d="m96,10.56v.96l-.96-.24v-.24l.96-.48Z"/>
    <path class="cls-1" d="m105.12,10.56c.49.43.17,0,.48.72h-.48v-.72Z"/>
    <path class="cls-1" d="m28.56,10.8c.46.33.14.02.48.48l-.48-.48Z"/>
    <path class="cls-1" d="m40.08,10.8c.86.43.28-.13.72.72h-.72v-.72Z"/>
    <path class="cls-1" d="m57.84,11.04l.96.48-.48.48h-.48v-.96Z"/>
    <path class="cls-1" d="m146.16,11.04l.72,1.44h-.24c-.66-.66-.61-.49-.48-1.44Z"/>
    <path class="cls-1" d="m51.12,11.28l.72.24-.96.48.24-.72Z"/>
    <path class="cls-1" d="m143.04,11.28c.73.46.39.05.72.96l-.24.24-.72-.72.24-.48Z"/>
    <path class="cls-1" d="m6.24,11.52l1.44.96-.48.48c-.65-.38-.33-.08-.72-.72l-.24-.72Z"/>
    <path class="cls-1" d="m24.24,11.52h.96v.24l-.96-.24Z"/>
    <path class="cls-1" d="m121.2,11.76h.72v.24l-.72.24v-.48Z"/>
    <path class="cls-1" d="m0,12c.87.15.73.1,1.2.48v.24H0v-.72Z"/>
    <path class="cls-1" d="m71.28,12h.72l-.24.96-.24.24-.48-.48.24-.72Z"/>
    <path class="cls-1" d="m116.4,12.48l1.2,1.44-.24.48h-1.2l-.48-.96.72-.96Z"/>
    <path class="cls-1" d="m140.64,12.48h.96l-.48.48-.48-.48Z"/>
    <path class="cls-1" d="m119.04,12.72c.63.47.62.36.96,1.2l-.72-.24-.24-.96Z"/>
    <path class="cls-1" d="m131.52,12.72c.56.24,1.12.48,1.68.72l-.24.72-1.44.24c-.27-1.1-.44-.7,0-1.68Z"/>
    <path class="cls-1" d="m85.92,12.96l.72.48-.96.48.24-.96Z"/>
    <path class="cls-1" d="m128.4,12.96l.48.48c-.46-.33-.14-.02-.48-.48Z"/>
    <path class="cls-1" d="m45.6,13.2h.72l-.24,1.2-.96-.48.48-.72Z"/>
    <path class="cls-1" d="m24,13.44h.72v.24l-.48.72h-.24v-.96Z"/>
    <path class="cls-1" d="m83.76,13.44h.96c-.12,1.33-.03.38.48,1.92l-.48.24-1.2-.48c.08-.56.16-1.12.24-1.68Z"/>
    <path class="cls-1" d="m142.8,13.68c.87.27.66.27,1.2.72l-.96.48-.24-1.2Z"/>
    <path class="cls-1" d="m2.64,14.4c.86.43.28-.13.72.72h-.72v-.72Z"/>
    <path class="cls-1" d="m12.48,14.4l.72.48v.24h-.24l-.48-.72Z"/>
    <path class="cls-1" d="m108.48,14.4c.46.33.39.23.72.72h-.24l-.48-.72Z"/>
    <path class="cls-1" d="m27.6,14.64l.72.48-.48.48-.48-.48.24-.48Z"/>
    <path class="cls-1" d="m56.16,14.64h.72l-.48.48-.24-.48Z"/>
    <path class="cls-1" d="m60.48,14.64l.48.96-.72-.24.24-.72Z"/>
    <path class="cls-1" d="m119.76,14.88l.24.72-.48-.24.24-.48Z"/>
    <path class="cls-1" d="m28.56,15.12h.48c-.33.46-.02.14-.48.48v-.48Z"/>
    <path class="cls-1" d="m139.92,15.12l.24.48-.24-.48Z"/>
    <path class="cls-1" d="m109.2,15.36h.72l.48.96c-1-.31-.75-.13-1.2-.96Z"/>
    <path class="cls-1" d="m66.96,15.6h.48c-.33.46-.02.14-.48.48v-.48Z"/>
    <path class="cls-1" d="m103.68,15.6h.48c-.36,1.15-.46.98-1.44,1.44v-.72l.96-.72Z"/>
    <path class="cls-1" d="m138.96,15.6l.24.72h-.24l-.24-.24.24-.48Z"/>
    <path class="cls-1" d="m5.52,15.84l.24.48-.24-.48Z"/>
    <path class="cls-1" d="m37.68,15.84l.48.48-.48.48h-.24l.24-.96Z"/>
    <path class="cls-1" d="m55.68,15.84c.46.33.14.02.48.48l-.48-.48Z"/>
    <path class="cls-1" d="m48.48,16.08c.63.43.33.02.24.72h-.24v-.72Z"/>
    <path class="cls-1" d="m81.36,16.32h.48l-.24.72h-.24l-.24-.24v-.24l.24-.24Z"/>
    <path class="cls-1" d="m127.2,16.32c.46.33.14.02.48.48l-.48-.48Z"/>
    <path class="cls-1" d="m140.16,16.32l.72.48-.48.48-.48-.48.24-.48Z"/>
    <path class="cls-1" d="m56.64,16.56h.48c-.33.46-.02.14-.48.48v-.48Z"/>
    <path class="cls-1" d="m145.2,16.56l.72.48-.48.24-.24.96-.72-.24.72-1.44Z"/>
    <path class="cls-1" d="m83.52,18.24h-1.2l.24-1.44h.96v1.44Z"/>
    <path class="cls-1" d="m93.84,16.8c1.08.29.77.02,1.2.96h-1.2v-.96Z"/>
    <path class="cls-1" d="m141.84,16.8h.96v.72l-.48.48-.72-.72.24-.48Z"/>
    <path class="cls-1" d="m32.4,17.04l.96.48v.48l-.48.24c-.38-.48-.31-.33-.48-1.2Z"/>
    <path class="cls-1" d="m64.08,17.04h.48c-.33.46-.02.14-.48.48v-.48Z"/>
    <path class="cls-1" d="m49.44,17.28c.73.46.39.05.72.96h-.96l.24-.96Z"/>
    <path class="cls-1" d="m60.24,17.52h.48c-.37,1.01.04.59-.96.96l.48-.96Z"/>
    <path class="cls-1" d="m73.68,17.52l.24.72h-.24v-.72Z"/>
    <path class="cls-1" d="m106.8,17.52h.48c-.33.46-.02.14-.48.48v-.48Z"/>
    <path class="cls-1" d="m116.16,17.52l.72.24-.72.72h-.24l.24-.96Z"/>
    <path class="cls-1" d="m62.4,17.76h.48c-.33.46-.02.14-.48.48v-.48Z"/>
    <path class="cls-1" d="m76.08,17.76c.73.46.39.05.72.96l-.96.24.24-1.2Z"/>
    <path class="cls-1" d="m79.92,17.76l.72.48h-.72v-.48Z"/>
    <path class="cls-1" d="m144,17.76l.48.48-.72.24.24-.72Z"/>
    <path class="cls-1" d="m97.2,18c.39.6.24.04,0,.72h-.24l.24-.72Z"/>
    <path class="cls-1" d="m140.88,18.48l.96.72-.48.48h-.24l-.48-.72.24-.48Z"/>
    <path class="cls-1" d="m105.84,18.72c.93.28,1.22.12,1.68.96-.56.08-1.12.16-1.68.24v-1.2Z"/>
    <path class="cls-1" d="m14.88,18.96l1.2.24v.24l-.48.24c-.65-.38-.33-.08-.72-.72Z"/>
    <path class="cls-1" d="m23.04,19.2h.48c-.33.46-.02.14-.48.48v-.48Z"/>
    <path class="cls-1" d="m62.64,19.2c.46.33.14.02.48.48l-.48-.48Z"/>
    <path class="cls-1" d="m30.72,19.44l.24.72-.48-.24.24-.48Z"/>
    <path class="cls-1" d="m135.6,19.44c.49.33.39.27.72.72l-.48.48h-.48l-.24-.48.48-.72Z"/>
    <path class="cls-1" d="m127.44,19.68c.53.61.29.14.24.96l-.48-.48.24-.48Z"/>
    <path class="cls-1" d="m35.52,20.16h1.2c-.59.93-.54-.09-.48,1.2l-.96-.48.24-.72Z"/>
    <path class="cls-1" d="m47.52,20.16h.72l-.72.72v-.72Z"/>
    <path class="cls-1" d="m66.24,20.16c.75.49.5.11.72,1.2h-.72v-1.2Z"/>
    <path class="cls-1" d="m67.92,20.16l.24.72h-.24v-.72Z"/>
    <path class="cls-1" d="m39.84,20.4h.72c-.31.72-.15.54-.72.96v-.96Z"/>
    <path class="cls-1" d="m78.48,20.64c.31.61.28.34.24.96l-.48-.24.24-.72Z"/>
    <path class="cls-1" d="m87.84,20.88l1.2.72-.72.72-.48-.24-.24-.72.24-.48Z"/>
    <path class="cls-1" d="m54.72,21.12l.24.48-.24-.48Z"/>
    <path class="cls-1" d="m10.56,21.36l.48.72c-.49-.43-.17,0-.48-.72Z"/>
    <path class="cls-1" d="m64.08,21.36c.49.43.17,0,.48.72l-.72-.24.24-.48Z"/>
    <path class="cls-1" d="m84.96,22.08c-.1.22.19.16-.24.48l.24-.48Z"/>
    <path class="cls-1" d="m79.68,22.32h.72l-.24.72-.48-.72Z"/>
    <path class="cls-1" d="m88.56,22.32l.96.48-.48.72c-.66-.58-.7-.25-.48-1.2Z"/>
    <path class="cls-1" d="m87.12,22.56h.48l-.48.72v-.72Z"/>
    <path class="cls-1" d="m91.2,22.56h.72l-.48.72h-.24v-.72Z"/>
    <path class="cls-1" d="m13.68,22.8l.24.48-.24-.48Z"/>
    <path class="cls-1" d="m122.88,22.8l.48.48c-.46-.33-.14-.02-.48-.48Z"/>
    <path class="cls-1" d="m39.12,23.04l.72.24-.48.48-.24.48-.48-.48.48-.72Z"/>
    <path class="cls-1" d="m140.64,23.04c.73.3.29,0,.72.48h-.24l-.48-.48Z"/>
    <path class="cls-1" d="m55.2,23.28c.46.33.14.02.48.48l-.48-.48Z"/>
    <path class="cls-1" d="m98.64,23.28c.46.33.39.23.72.72h-.24l-.48-.72Z"/>
    <path class="cls-1" d="m.48,23.76c1.01.37.59-.04.96.96H0v-.72l.48-.24Z"/>
    <path class="cls-1" d="m106.08,24l.24.48-.24-.48Z"/>
    <path class="cls-1" d="m56.64,24.24l1.2.24v.24l-.24.48c-1.01-.37-.59.04-.96-.96Z"/>
    <path class="cls-1" d="m99.36,24.24c.4.08.8.16,1.2.24v.24c-.32.16-.64.32-.96.48l-.24-.96Z"/>
    <path class="cls-1" d="m110.4,24.48h.48c-.33.46-.02.14-.48.48v-.48Z"/>
    <path class="cls-1" d="m73.92,24.96h.48c-.33.46-.02.14-.48.48v-.48Z"/>
    <path class="cls-1" d="m107.28,24.96l.48.48-.24.48-.72-.24.48-.72Z"/>
    <path class="cls-1" d="m98.88,25.44l.24.48-.24-.48Z"/>
    <path class="cls-1" d="m121.44,25.68c.63.43.33.01.24.72h-.24v-.72Z"/>
    <path class="cls-1" d="m115.68,25.92l.72.48-.48.48h-.24v-.96Z"/>
    <path class="cls-1" d="m142.8,25.92h.48c-.46.73-.05.39-.96.72l.48-.72Z"/>
    <path class="cls-1" d="m67.2,26.16c.24.72.48,1.44.72,2.16h-.96c-.08-.64-.16-1.28-.24-1.92l.48-.24Z"/>
    <path class="cls-1" d="m124.08,26.16h.48c-.33.46-.02.14-.48.48v-.48Z"/>
    <path class="cls-1" d="m129.6,26.16h.72l-.48.96-.48-.48.24-.48Z"/>
    <path class="cls-1" d="m139.68,26.16c.78.46.99.93,1.44,1.68v.24h-.72c-.24-.64-.48-1.28-.72-1.92Z"/>
    <path class="cls-1" d="m11.76,26.4l.24.48-.24-.48Z"/>
    <path class="cls-1" d="m96.24,26.4c.84.44.65.2.96,1.2h-.24c-.65-.53-.46-.17-.72-1.2Z"/>
    <path class="cls-1" d="m16.32,26.64l.24,1.2-.96-.48.24-.48.48-.24Z"/>
    <path class="cls-1" d="m97.68,26.64l1.2.24-.24.72c-.6-.09-.5-.05-1.2-.48l.24-.48Z"/>
    <path class="cls-1" d="m107.04,26.64c.86.43.28-.13.72.72-.96-.34-.43-.1-.72-.72Z"/>
    <path class="cls-1" d="m119.76,26.64l.72.48-.24.48-.48-.48v-.48Z"/>
    <path class="cls-1" d="m71.04,26.88l.24.48-.24-.48Z"/>
    <path class="cls-1" d="m122.4,26.88c.92.36,1.67,1.04,1.92,1.68h-.48v.48h-1.2l-.72-.96.48-1.2Z"/>
    <path class="cls-1" d="m21.36,27.12l.72.48c-.61.78-.44.75-.72,1.68h-.72l-.24-.48c.32-.56.64-1.12.96-1.68Z"/>
    <path class="cls-1" d="m37.44,27.12l.48.48c-.46-.33-.14-.02-.48-.48Z"/>
    <path class="cls-1" d="m45.84,27.12h.72l-.24.72-.48-.72Z"/>
    <path class="cls-1" d="m116.64,27.12h.72v1.2h-.72l-.24-.72.24-.48Z"/>
    <path class="cls-1" d="m11.76,27.36h.72c-.37,1.01.04.59-.96.96l.24-.96Z"/>
    <path class="cls-1" d="m22.8,27.36h.96l-.24,1.2h-.72v-1.2Z"/>
    <path class="cls-1" d="m43.44,27.36h.72v.24l-.24.72-.72-.48.24-.48Z"/>
    <path class="cls-1" d="m76.56,27.36h.48c-.38.65-.08.33-.72.72l.24-.72Z"/>
    <path class="cls-1" d="m72,27.6c.65.38.33.08.72.72l-.72-.72Z"/>
    <path class="cls-1" d="m127.92,27.6c.49.43.17,0,.48.72l-.48-.72Z"/>
    <path class="cls-1" d="m33.12,27.84h.96v.72h-.96v-.72Z"/>
    <path class="cls-1" d="m1.2,28.08l.24,1.44h-.72l-.24-.48.72-.96Z"/>
    <path class="cls-1" d="m101.28,28.08c.75.39.56.22.96.96-.61-.39-.58-.3-.96-.96Z"/>
    <path class="cls-1" d="m104.4,28.08l.72.24-.48.72-.48-.48.24-.48Z"/>
    <path class="cls-1" d="m13.2,28.32l.24.72h-.24l-.24-.24.24-.48Z"/>
    <path class="cls-1" d="m74.88,28.32h.72v.24l-.72.24v-.48Z"/>
    <path class="cls-1" d="m80.88,28.32h.72l-.48.48-.24-.48Z"/>
    <path class="cls-1" d="m127.2,28.32l.48.48c-.46-.33-.14-.02-.48-.48Z"/>
    <path class="cls-1" d="m132,28.32l.24.48-.24-.48Z"/>
    <path class="cls-1" d="m4.8,28.56c1.01.37.59-.04.96.96h-.72l-.24-.96Z"/>
    <path class="cls-1" d="m17.28,28.56l.24.48-.24-.48Z"/>
    <path class="cls-1" d="m61.68,28.56h.72v.24l-.72.24v-.48Z"/>
    <path class="cls-1" d="m66,28.56l.24.48-.24-.48Z"/>
    <path class="cls-1" d="m97.68,28.56h.72l-.24.96h-.24l-.24-.96Z"/>
    <path class="cls-1" d="m136.32,28.56l.48.48h-.72l.24-.48Z"/>
    <path class="cls-1" d="m34.32,28.8l.96.48-.96.48v-.96Z"/>
    <path class="cls-1" d="m67.44,29.04c.73.47.25.08.48.72l-.48-.72Z"/>
    <path class="cls-1" d="m127.44,29.04l.24.72-.48-.24.24-.48Z"/>
    <path class="cls-1" d="m38.16,29.28c.73.46.39.05.72.96h-.72l-.24-.72.24-.24Z"/>
    <path class="cls-1" d="m79.44,29.28l.72.24-.72.72-.24-.48.24-.48Z"/>
    <path class="cls-1" d="m81.6,29.28h.72v.24l-.72.24v-.48Z"/>
    <path class="cls-1" d="m138.96,29.28l.48.48-.24.24-.48-.24v-.24l.24-.24Z"/>
    <path class="cls-1" d="m144.24,29.28h.72c-.37,1.01.04.59-.96.96l.24-.96Z"/>
    <path class="cls-1" d="m30.24,29.52h.48v.72l-.96-.48.48-.24Z"/>
    <path class="cls-1" d="m57.6,29.52c0,.9.52.63-.48,1.2l.48-1.2Z"/>
    <path class="cls-1" d="m35.04,29.76h.96v.72c-.92-.32-.5,0-.96-.72Z"/>
    <path class="cls-1" d="m54.96,29.76h.72l-.48.48-.24-.48Z"/>
    <path class="cls-1" d="m28.56,30l.96.24-.24.48-1.44.24v.72h.96v.24c-1.17.3-1.27.72-1.92,1.44l-.48-.24c-.4-.64-.8-1.28-1.2-1.92l.24-.72h.72c.51.67.36.55,1.44.72.35-.98.32-.64.96-1.2Z"/>
    <path class="cls-1" d="m78.48,30l.72.48-.24.48-.48-.48v-.48Z"/>
    <path class="cls-1" d="m17.04,30.24c.69.31.24.22,1.44.24v1.2c-.64-.4-1.28-.8-1.92-1.2l.48-.24Z"/>
    <path class="cls-1" d="m88.08,30.24l.96.24v.96h-.96l-.24-.72.24-.48Z"/>
    <path class="cls-1" d="m102.24,30.24h.48c-.33.46-.02.14-.48.48v-.48Z"/>
    <path class="cls-1" d="m22.08,30.48c.45.51.3.68.24,1.92h-.72l-.48-.48.96-1.44Z"/>
    <path class="cls-1" d="m68.64,30.48c.46.33.14.02.48.48l-.48-.48Z"/>
    <path class="cls-1" d="m70.56,30.48c.86.43.28-.13.72.72-.96-.34-.43-.1-.72-.72Z"/>
    <path class="cls-1" d="m4.8,30.72h1.2v.96h-1.2l-.48-.48v-.24l.48-.24Z"/>
    <path class="cls-1" d="m131.52,30.96l.24.48h-.48l.24-.48Z"/>
    <path class="cls-1" d="m140.64,30.96h.48l-.24.72h-.24l-.24-.24v-.24l.24-.24Z"/>
    <path class="cls-1" d="m19.92,31.2h.48c-.33.46-.02.14-.48.48v-.48Z"/>
    <path class="cls-1" d="m51.36,31.2h.72v.96h-.72v-.96Z"/>
    <path class="cls-1" d="m118.08,31.2l.48.48-.72.24.24-.72Z"/>
    <path class="cls-1" d="m10.8,31.68l.72.24-.48.72h-.24v-.96Z"/>
    <path class="cls-1" d="m48.48,31.68h.72v.96h-.72v-.96Z"/>
    <path class="cls-1" d="m63.6,31.68c.58.42.4.25.72.96h-.96l.24-.96Z"/>
    <path class="cls-1" d="m79.92,31.68c.86.43.28-.13.72.72h-.24l-.48-.72Z"/>
    <path class="cls-1" d="m88.8,31.68l.96.48-.48.72-.72-.48.24-.72Z"/>
    <path class="cls-1" d="m87.36,31.92h.48c-.33.46-.02.14-.48.48v-.48Z"/>
    <path class="cls-1" d="m91.44,31.92h.72l-.48.72h-.24v-.72Z"/>
    <path class="cls-1" d="m120.48,31.92h.72l-.24.96h-.24l-.24-.96Z"/>
    <path class="cls-1" d="m43.92,32.16c.52.57.44,1,.24,1.68h-.96v-.96c.65-.38.33-.08.72-.72Z"/>
    <path class="cls-1" d="m54,32.16h.72v1.2c-1.09-.46-.87-.16-.72-1.2Z"/>
    <path class="cls-1" d="m111.12,32.16l.72.72-.24.72-.24-.48-.24-.96Z"/>
    <path class="cls-1" d="m7.44,32.64c.5.47.25.09.48.96h-.72l.24-.96Z"/>
    <path class="cls-1" d="m24,32.64l.24.48-.24-.48Z"/>
    <path class="cls-1" d="m33.36,32.64h.48l-.48.72v-.72Z"/>
    <path class="cls-1" d="m145.92,32.64l.72.72-.24.72-.96-.24.48-1.2Z"/>
    <path class="cls-1" d="m96.24,32.88c.75.49.5.11.72,1.2h-.72v-1.2Z"/>
    <path class="cls-1" d="m115.92,32.88l.48,1.2-.24.24h-.96l.72-1.44Z"/>
    <path class="cls-1" d="m122.4,32.88c.73.3.29,0,.72.48h-.24l-.48-.48Z"/>
    <path class="cls-1" d="m127.44,32.88c.96.45,1.54,1.15,1.92,2.16-.46.33-.14.02-.48.48-1.07-.38-1.67.43-2.16-1.2.85-.58.37-.42.72-1.44Z"/>
    <path class="cls-1" d="m15.36,33.12h.96v.96h-1.44v-.24l.48-.24v-.48Z"/>
    <path class="cls-1" d="m36,33.12h.72l-.96.48.24-.48Z"/>
    <path class="cls-1" d="m48.48,33.36h.48c-.33.46-.02.14-.48.48v-.48Z"/>
    <path class="cls-1" d="m104.64,33.36h.48l-.48.96h-.24l.24-.96Z"/>
    <path class="cls-1" d="m46.08,33.6l.48.48-.24.48-.48-.48.24-.48Z"/>
    <path class="cls-1" d="m52.08,33.6h.72v.96l-.96-.48.24-.48Z"/>
    <path class="cls-1" d="m97.92,33.6h.96v.96c-1.01-.37-.59.04-.96-.96Z"/>
    <path class="cls-1" d="m25.44,33.84c.49.43.17,0,.48.72h-.48v-.72Z"/>
    <path class="cls-1" d="m140.88,34.08c.72.32,1.44.64,2.16.96l-.48.96-1.44-1.2-.24-.72Z"/>
    <path class="cls-1" d="m31.44,34.32l.24.72h-.24v-.72Z"/>
    <path class="cls-1" d="m91.2,34.32h.48c-.33.46-.02.14-.48.48v-.48Z"/>
    <path class="cls-1" d="m5.76,34.56c.5.47.25.09.48.96l-.96-.48v-.24l.48-.24Z"/>
    <path class="cls-1" d="m39.6,34.56h.48c-.33.46-.02.14-.48.48v-.48Z"/>
    <path class="cls-1" d="m64.56,34.56c.46.33.14.02.48.48l-.48-.48Z"/>
    <path class="cls-1" d="m57.84,35.04l.96.24v.24c-.54.33-.47.35-1.44.48v-.24l.48-.72Z"/>
    <path class="cls-1" d="m73.2,35.04c.39.5.36.91-.24,1.68l-.48-.96c.49-.33.39-.27.72-.72Z"/>
    <path class="cls-1" d="m44.64,35.52l.48.48h-.72l.24-.48Z"/>
    <path class="cls-1" d="m66.24,35.52h.72v.72l-.96-.24.24-.48Z"/>
    <path class="cls-1" d="m103.2,35.52l.96.48-.96.48v-.96Z"/>
    <path class="cls-1" d="m116.88,35.76h.48c-.42.23-.05.22-.48,0Z"/>
    <path class="cls-1" d="m63.36,36.24l.24.48-.24-.48Z"/>
    <path class="cls-1" d="m112.32,36.24h.96l-.72.72h-.24v-.72Z"/>
    <path class="cls-1" d="m133.92,36.48c1,.54,1.34,1.16,1.44,2.64h-.72l-.48-.24v-1.44c-1.08.39-.46.76-1.44.24.43-.46.81-.67,1.2-1.2Z"/>
    <path class="cls-1" d="m9.36,36.96l.72.48v.24l-.72.24h-.24l.24-.96Z"/>
    <path class="cls-1" d="m15.12,37.44l.24.72-.48-.24.24-.48Z"/>
    <path class="cls-1" d="m35.76,37.44h.72l-.48.48-.24-.48Z"/>
    <path class="cls-1" d="m96,37.68h.48l-.48.96h-.24l.24-.96Z"/>
    <path class="cls-1" d="m129.6,37.68l.48.48h-.72l.24-.48Z"/>
    <path class="cls-1" d="m99.12,37.92l.72.48v.24c-.96-.34-.43-.1-.72-.72Z"/>
    <path class="cls-1" d="m1.92,38.16l.72,1.2h-.96l.24-1.2Z"/>
    <path class="cls-1" d="m24,38.16l.24.48-.24-.48Z"/>
    <path class="cls-1" d="m130.08,38.16h.48c-.33.46-.02.14-.48.48v-.48Z"/>
    <path class="cls-1" d="m82.56,38.4h1.2l.24.96-.24.72-.96-.72-.24-.96Z"/>
    <path class="cls-1" d="m10.56,38.64l.24.48-.24-.48Z"/>
    <path class="cls-1" d="m100.08,38.64c.39.6.24.04,0,.72h-.24c.08-.24.16-.48.24-.72Z"/>
    <path class="cls-1" d="m90.96,38.88c.49.43.17,0,.48.72h-.48v-.72Z"/>
    <path class="cls-1" d="m104.64,38.88l.48.48-.24.24-.48-.24v-.24l.24-.24Z"/>
    <path class="cls-1" d="m110.64,38.88l.24.48-.24-.48Z"/>
    <path class="cls-1" d="m23.04,39.12l.96.24v.48c-1.07-.31-.48.16-.96-.72Z"/>
    <path class="cls-1" d="m40.08,39.12h.72l-.48.72-.48-.24.24-.48Z"/>
    <path class="cls-1" d="m126.96,39.12h.48v.24l-.48.48h-.24l.24-.72Z"/>
    <path class="cls-1" d="m140.64,39.12c.43.78.63.48-.24.96l.24-.96Z"/>
    <path class="cls-1" d="m62.88,39.36c.86.43.28-.13.72.72h-.24l-.48-.72Z"/>
    <path class="cls-1" d="m113.76,39.36l.96.48-.24.72-.72-.24v-.96Z"/>
    <path class="cls-1" d="m116.4,39.36c.46.33.14.02.48.48l-.48-.48Z"/>
    <path class="cls-1" d="m138.72,39.36l.48.96-.96.24.48-1.2Z"/>
    <path class="cls-1" d="m34.56,39.6c.49.43.17,0,.48.72h-.48v-.72Z"/>
    <path class="cls-1" d="m15.6,39.84l.48.96-.72-.48.24-.48Z"/>
    <path class="cls-1" d="m18,39.84c.72.31.54.15.96.72l.24.72-.48.24-.72-.24v-1.44Z"/>
    <path class="cls-1" d="m59.28,39.84c.73.46.39.05.72.96l-.96-.48.24-.48Z"/>
    <path class="cls-1" d="m78.96,39.84h.72v.96h-.72v-.96Z"/>
    <path class="cls-1" d="m117.6,39.84h.48c-.42.23-.05.22-.48,0Z"/>
    <path class="cls-1" d="m33.12,40.08l.96.48-.24.48h-.96l-.24-.48.48-.48Z"/>
    <path class="cls-1" d="m61.92,40.08h.48c-.33.46-.02.14-.48.48v-.48Z"/>
    <path class="cls-1" d="m87.6,40.08c.73.47.25.08.48.72h-.24l-.48-.24.24-.48Z"/>
    <path class="cls-1" d="m43.92,40.32l.72.48-.48.48h-.24v-.96Z"/>
    <path class="cls-1" d="m13.2,40.56h.48c-.42.23-.05.22-.48,0Z"/>
    <path class="cls-1" d="m75.84,40.56l.96.48v.24l-.72.24-.24-.96Z"/>
    <path class="cls-1" d="m90.48,40.56l.72.48v.24h-.72v-.72Z"/>
    <path class="cls-1" d="m109.92,40.56c.49.43.17,0,.48.72h-.24l-.48-.24.24-.48Z"/>
    <path class="cls-1" d="m145.2,40.56h.48c-.42.23-.05.22-.48,0Z"/>
    <path class="cls-1" d="m11.04,40.8h.72v.24l-.24.72-.72-.48.24-.48Z"/>
    <path class="cls-1" d="m102.48,40.8l.72.24-.48.96-.72-.48.48-.72Z"/>
    <path class="cls-1" d="m40.08,41.04c.73.46.39.05.72.96h-.96l.24-.96Z"/>
    <path class="cls-1" d="m22.56,41.28h.48c-.42.23-.05.22-.48,0Z"/>
    <path class="cls-1" d="m28.56,41.28l1.44.72-.48.72h-.72l-.24-.24v-1.2Z"/>
    <path class="cls-1" d="m30,41.28h.72l-.48.48-.24-.48Z"/>
    <path class="cls-1" d="m120.72,41.52h.48c-.33.46-.02.14-.48.48v-.48Z"/>
    <path class="cls-1" d="m139.44,41.76h.48c-.43.86.13.28-.72.72l.24-.72Z"/>
    <path class="cls-1" d="m72.96,42h.48l-.24.72h-.24l-.24-.24v-.24l.24-.24Z"/>
    <path class="cls-1" d="m98.64,42h.48c-.43.86.13.28-.72.72l.24-.72Z"/>
    <path class="cls-1" d="m103.68,42l.96.24c-.37,1.01.04.59-.96.96l-.24-.72.24-.48Z"/>
    <path class="cls-1" d="m106.8,42c.95.41.67.13.96,1.2h-.72l-.24-1.2Z"/>
    <path class="cls-1" d="m132.48,42l.24.48-.24-.48Z"/>
    <path class="cls-1" d="m142.56,42c.56.08,1.12.16,1.68.24v.48c-1.24-.14-1.2.18-1.68-.72Z"/>
    <path class="cls-1" d="m3.6,42.24l.48,1.44H.48l.48-.72c.94.11,1.96,0,2.64-.72Z"/>
    <path class="cls-1" d="m15.12,42.24l.24.48-.24-.48Z"/>
    <path class="cls-1" d="m22.8,42.24c.62.27.41.38.48.48-.1.62.23.13-.24.72-.43-.63-.38-.39-.24-1.2Z"/>
    <path class="cls-1" d="m127.44,42.24c.56.24,1.12.48,1.68.72l-.48.48-.48-.48c-.65-.38-.33-.08-.72-.72Z"/>
    <path class="cls-1" d="m58.56,42.48l.96.48-.48.48-.72-.24.24-.72Z"/>
    <path class="cls-1" d="m69.36,42.96h.48c-.33.46-.02.14-.48.48v-.48Z"/>
    <path class="cls-1" d="m54.72,43.2c.47.58.28.56.48,1.2l-.72.72c-1.04-.25-.67-.08-1.2-.72.56-.49,1-.52,1.44-1.2Z"/>
    <path class="cls-1" d="m119.76,43.2h.48c-.42.23-.05.22-.48,0Z"/>
    <path class="cls-1" d="m19.44,43.44h.48l-.24.72h-.24l-.24-.24v-.24l.24-.24Z"/>
    <path class="cls-1" d="m27.36,43.44h.48c-.33.46-.02.14-.48.48v-.48Z"/>
    <path class="cls-1" d="m98.88,43.44c.5.47.25.09.48.96l-.72.24.24-1.2Z"/>
    <path class="cls-1" d="m30.48,43.68l.24.48h-.48l.24-.48Z"/>
    <path class="cls-1" d="m84.48,43.92h.48c-.33.46-.02.14-.48.48v-.48Z"/>
    <path class="cls-1" d="m118.08,43.92l.48.48-.48.24v-.72Z"/>
    <path class="cls-1" d="m125.76,44.16l.48.48-.48.24v-.72Z"/>
    <path class="cls-1" d="m1.92,44.64l.48.48-.96.48v-.72l.48-.24Z"/>
    <path class="cls-1" d="m9.6,44.64l.72.48h-.72v-.48Z"/>
    <path class="cls-1" d="m85.44,44.64l.72.48v.24c-.96-.34-.43-.1-.72-.72Z"/>
    <path class="cls-1" d="m5.52,44.88c.56.32,1.12.64,1.68.96v.24c-.64.08-1.28.16-1.92.24l-.48-1.2.72-.24Z"/>
    <path class="cls-1" d="m101.52,44.88c.46.33.14.02.48.48l-.48-.48Z"/>
    <path class="cls-1" d="m19.2,45.12h.72l-.48.72h-.24v-.72Z"/>
    <path class="cls-1" d="m67.2,45.12h.48c-.33.46-.02.14-.48.48v-.48Z"/>
    <path class="cls-1" d="m72.72,45.12c.87.85.24,1.5-.72,2.4v-.48l-.24-.72.96-1.2Z"/>
    <path class="cls-1" d="m103.2,45.36h.72v.24l-.72.24v-.48Z"/>
    <path class="cls-1" d="m86.16,45.6l.96.24-.24,1.2h-.24l-.96-.24-.24-.48.72-.72Z"/>
    <path class="cls-1" d="m64.8,45.84c.53.49.45.33.72,1.2-1.09-.46-.87-.16-.72-1.2Z"/>
    <path class="cls-1" d="m36.48,46.08c.92.32.5,0,.96.72-.92-.32-.5,0-.96-.72Z"/>
    <path class="cls-1" d="m40.32,46.08c1.01.37.59-.04.96.96h-.24c-.58-.46-.39-.15-.72-.96Z"/>
    <path class="cls-1" d="m68.88,46.08h.48c-.33.46-.02.14-.48.48v-.48Z"/>
    <path class="cls-1" d="m100.08,46.08h.96l-.48.96-.48-.96Z"/>
    <path class="cls-1" d="m60.24,46.32l.72.24-.48.96h-.24l-.24-.48.24-.72Z"/>
    <path class="cls-1" d="m119.76,46.32c.49.43.17,0,.48.72h-.24l-.48-.24.24-.48Z"/>
    <path class="cls-1" d="m10.08,46.56l1.2.48-.24.48h-.72l-.24-.96Z"/>
    <path class="cls-1" d="m20.64,46.56l.48.96-.72-.48.24-.48Z"/>
    <path class="cls-1" d="m22.08,46.56c.63.43.33.01.24.72h-.24v-.72Z"/>
    <path class="cls-1" d="m139.2,46.56l.24.48-.24-.48Z"/>
    <path class="cls-1" d="m133.92,46.8c.73.3.29,0,.72.48h-.24l-.48-.48Z"/>
    <path class="cls-1" d="m42.24,47.04h.72l-.24.72-.48-.72Z"/>
    <path class="cls-1" d="m83.04,47.04h.48c-.33.46-.02.14-.48.48v-.48Z"/>
    <path class="cls-1" d="m136.8,47.04h.72v.96h-.24l-.48-.48v-.48Z"/>
    <path class="cls-1" d="m101.28,47.28c.49.43.17,0,.48.72l-.48-.72Z"/>
    <path class="cls-1" d="m142.08,47.28c.43.78.63.48-.24.96l.24-.96Z"/>
    <path class="cls-1" d="m25.2,47.52c.5.47.25.09.48.96h-.24l-.24-.96Z"/>
    <path class="cls-1" d="m74.4,47.52h.96v.96h-.96v-.96Z"/>
    <path class="cls-1" d="m129.6,47.52c.38.48.31.33.48,1.2l-.48.24-.48-.48.48-.96Z"/>
    <path class="cls-1" d="m138.24,47.52c.5.49.39.42.48,1.44h-.96v-.72l.48-.72Z"/>
    <path class="cls-1" d="m38.4,47.76h.48c-.33.46-.02.14-.48.48v-.48Z"/>
    <path class="cls-1" d="m54.96,47.76h.96l-.24,1.2h-.48l-.24-1.2Z"/>
    <path class="cls-1" d="m103.44,48l.72.48-.48.48-.48-.48.24-.48Z"/>
    <path class="cls-1" d="m119.04,48l.72.48v.24h-.96v-.24l.24-.48Z"/>
    <path class="cls-1" d="m35.76,48.24h1.44c-.32.64-.64,1.28-.96,1.92l-.24-.72-.72-.48.48-.72Z"/>
    <path class="cls-1" d="m99.84,48.48c.32.16.64.32.96.48l-.48.24c-.24-.08-.48-.16-.72-.24l.24-.48Z"/>
    <path class="cls-1" d="m66.96,48.72h.96v.72c-.92-.32-.5,0-.96-.72Z"/>
    <path class="cls-1" d="m75.6,48.72l.24.48-.24-.48Z"/>
    <path class="cls-1" d="m115.2,48.72h.96l.24.72-.24.48h-.96v-1.2Z"/>
    <path class="cls-1" d="m37.68,48.96c.73.46.39.05.72.96l-.24.24h-.24c-.34-.69-.38-.35-.24-1.2Z"/>
    <path class="cls-1" d="m112.56,48.96h1.2l-.24,1.2h-.72l-.24-1.2Z"/>
    <path class="cls-1" d="m120.96,48.96h.72l-.48.48-.24-.48Z"/>
    <path class="cls-1" d="m1.92,49.44h.72l-.48.72h-.24v-.72Z"/>
    <path class="cls-1" d="m18.48,49.68h.72c-.37,1.01.04.59-.96.96l.24-.96Z"/>
    <path class="cls-1" d="m40.56,49.68c.86.43.28-.13.72.72-.96-.34-.43-.1-.72-.72Z"/>
    <path class="cls-1" d="m89.52,49.68h.72v.24l-.72.24v-.48Z"/>
    <path class="cls-1" d="m109.44,49.68h.96c-.38,1.23-.91,1.39-1.92,1.92v-.72c.76-.43.62-.34.96-1.2Z"/>
    <path class="cls-1" d="m75.84,49.92l.72.48h-.72v-.48Z"/>
    <path class="cls-1" d="m98.88,49.92h.48c-.33.46-.02.14-.48.48v-.48Z"/>
    <path class="cls-1" d="m10.32,50.16c.26.82-.08.91-.72,1.44l-.48-.24.24-.96.96-.24Z"/>
    <path class="cls-1" d="m31.44,50.16h.96l-.72.48-.24-.48Z"/>
    <path class="cls-1" d="m133.44,50.16c.31.79.45.27,0,.96v-.96Z"/>
    <path class="cls-1" d="m144.96,50.16h.48c-.33.46-.02.14-.48.48v-.48Z"/>
    <path class="cls-1" d="m113.04,50.4c.28.68.18.24-.24.72l.24-.72Z"/>
    <path class="cls-1" d="m117.12,50.4h.96v.24l-.24.72-.96-.48.24-.48Z"/>
    <path class="cls-1" d="m138.96,50.4l.48.48h-.72l.24-.48Z"/>
    <path class="cls-1" d="m0,50.64h.72v.96h-.24l-.48-.48v-.48Z"/>
    <path class="cls-1" d="m27.84,50.64c.63.43.33.01.24.72h-.24v-.72Z"/>
    <path class="cls-1" d="m91.2,50.64h.72v.96l-.72.48-.72-.72.72-.72Z"/>
    <path class="cls-1" d="m55.92,50.88h.72l-.48.48-.24-.48Z"/>
    <path class="cls-1" d="m96.96,50.88h.48c-.33.46-.02.14-.48.48v-.48Z"/>
    <path class="cls-1" d="m146.4,50.88h.48c-.43.86.13.28-.72.72l.24-.72Z"/>
    <path class="cls-1" d="m119.04,51.12h.48c-.33.46-.02.14-.48.48v-.48Z"/>
    <path class="cls-1" d="m125.76,51.12l.96.48-.24.48-.48.24c-.43-.63-.38-.39-.24-1.2Z"/>
    <path class="cls-1" d="m82.08,51.84c.84.39.53.24.96.96h-.96v-.96Z"/>
    <path class="cls-1" d="m.48,52.08h.72l-.24.96-.72-.24.24-.72Z"/>
    <path class="cls-1" d="m8.4,52.08c.43.78.63.48-.24.96l.24-.96Z"/>
    <path class="cls-1" d="m45.6,52.08c.91.39.56.1.96.96l-1.2-.24.24-.72Z"/>
    <path class="cls-1" d="m51.6,52.08c.86.43.28-.13.72.72h-.72v-.72Z"/>
    <path class="cls-1" d="m66,52.32l.48.48-.24.48-.48-.24.24-.72Z"/>
    <path class="cls-1" d="m81.12,52.56h.48l-.72.48.24-.48Z"/>
    <path class="cls-1" d="m11.52,52.8l.24.48-.24-.48Z"/>
    <path class="cls-1" d="m62.16,52.8l.72.48-.96.48.24-.96Z"/>
    <path class="cls-1" d="m85.68,53.28c.46.33.14.02.48.48l-.48-.48Z"/>
    <path class="cls-1" d="m38.16,53.52h.96l.24.72v.24h-.96l-.48-.48.24-.48Z"/>
    <path class="cls-1" d="m5.52,53.76h.72l-.48.96-.48-.48.24-.48Z"/>
    <path class="cls-1" d="m27.36,54h.72l-.24,1.44h-.24c-.47-.68-.35-.47-.24-1.44Z"/>
    <path class="cls-1" d="m143.76,54c.49.33.39.27.72.72h-.72v-.72Z"/>
    <path class="cls-1" d="m3.84,54.24h1.2c-.25.88-.2.71-.72,1.2-.38-.48-.31-.33-.48-1.2Z"/>
    <path class="cls-1" d="m21.84,54.72h1.92l-.48.96-1.2.24c-.43-.63-.38-.39-.24-1.2Z"/>
    <path class="cls-1" d="m145.2,54.72c.56.08,1.12.16,1.68.24v1.2l-.96-.48c-.73-.46-.39-.05-.72-.96Z"/>
    <path class="cls-1" d="m103.2,54.96c.49.43.17,0,.48.72l-.48-.72Z"/>
    <path class="cls-1" d="m105.12,54.96c.63.43.33.02.24.72h-.24v-.72Z"/>
    <path class="cls-1" d="m0,55.2l.48.48-.24.24-.24-.72Z"/>
    <path class="cls-1" d="m61.68,55.2l.48.48-.48.24v-.72Z"/>
    <path class="cls-1" d="m45.84,55.44l.48.48-.24.72h-.96c.27-.87.27-.66.72-1.2Z"/>
    <path class="cls-1" d="m51.6,55.44l.96.48-.24.72c-.87-.15-.73-.1-1.2-.48l.48-.72Z"/>
    <path class="cls-1" d="m98.88,55.44l.48.48-.48.48v-.96Z"/>
    <path class="cls-1" d="m116.16,55.44h.72v.24l-.72.24v-.48Z"/>
    <path class="cls-1" d="m114.48,55.68c.43.78.63.48-.24.96l.24-.96Z"/>
    <path class="cls-1" d="m113.28,55.92l.48.48-.48.24v-.72Z"/>
    <path class="cls-1" d="m21.6,56.4h.72l-.48.48-.24-.48Z"/>
    <path class="cls-1" d="m33.36,56.4h.72v.24l-.72.24v-.48Z"/>
    <path class="cls-1" d="m135.6,56.4c.73.3.29,0,.72.48h-.24l-.48-.48Z"/>
    <path class="cls-1" d="m27.84,56.64l.48.96h-1.2l.24-.72.48-.24Z"/>
    <path class="cls-1" d="m105.36,56.64h.48c-.33.46-.02.14-.48.48v-.48Z"/>
    <path class="cls-1" d="m38.16,56.88l.72.48v.24h-.72v-.72Z"/>
    <path class="cls-1" d="m74.88,56.88c.92.32.5,0,.96.72l.24.96-.96-.24c-.23-.86-.31-.68-.24-1.44Z"/>
    <path class="cls-1" d="m138,56.88l.48.48-.24.48-.48-.48.24-.48Z"/>
    <path class="cls-1" d="m60,57.12c.56.32,1.12.64,1.68.96l-.24.48h-.96l-.72-.96.24-.48Z"/>
    <path class="cls-1" d="m99.36,57.12c.32.16.64.32.96.48-.16.16-.32.32-.48.48l-.48-.96Z"/>
    <path class="cls-1" d="m119.52,57.12h.72l-.48.72-.48-.24v-.24l.24-.24Z"/>
    <path class="cls-1" d="m.48,57.36l.48.48c-.46-.33-.14-.02-.48-.48Z"/>
    <path class="cls-1" d="m106.56,57.36h.72l-.24.96-.72.24.24-1.2Z"/>
    <path class="cls-1" d="m144.48,57.36l.72.48-.48,1.2-.48-.96.24-.72Z"/>
    <path class="cls-1" d="m101.76,57.6c.46.33.14.02.48.48l-.48-.48Z"/>
    <path class="cls-1" d="m77.52,57.84l.96.24-.24.48-.72.24h-.24l.24-.96Z"/>
    <path class="cls-1" d="m87.6,57.84c.49.43.17,0,.48.72h-.24l-.48-.24.24-.48Z"/>
    <path class="cls-1" d="m95.04,57.84l.24.72h-.24v-.72Z"/>
    <path class="cls-1" d="m11.76,58.08c.43.3.4.38.72.72l-.24.48-.72-.48.24-.72Z"/>
    <path class="cls-1" d="m91.68,58.08h.72v.24l-.72.24v-.48Z"/>
    <path class="cls-1" d="m26.88,58.32h.72l-.48.72h-.24v-.72Z"/>
    <path class="cls-1" d="m50.64,58.32l1.2.24v.96h-.72l-.72-.72.24-.48Z"/>
    <path class="cls-1" d="m80.64,58.32h.72c-.25.88-.2.71-.72,1.2l-.48-.96.48-.24Z"/>
    <path class="cls-1" d="m18,58.56c.86.43.28-.13.72.72h-.72v-.72Z"/>
    <path class="cls-1" d="m23.76,58.56l.24.48-.24-.48Z"/>
    <path class="cls-1" d="m66.24,58.56l1.2.24v.96l-1.2-.48v-.72Z"/>
    <path class="cls-1" d="m9.36,59.04l1.44.24v.72c-1.06-.24-.96-.16-1.44-.96Z"/>
    <path class="cls-1" d="m14.16,59.04h.48c-.33.46-.02.14-.48.48v-.48Z"/>
    <path class="cls-1" d="m41.28,59.04h.72l-.24.72-.48-.72Z"/>
    <path class="cls-1" d="m69.84,59.04l.72.24v.72h-1.2v-.24l.48-.72Z"/>
    <path class="cls-1" d="m114.24,60.24v-1.2l.72.24.48.72v.24h-1.2Z"/>
    <path class="cls-1" d="m75.6,59.52c1.01.37.59-.04.96.96h-.72l-.48-.48.24-.48Z"/>
    <path class="cls-1" d="m12.24,59.76c.87.15.73.1,1.2.48v.24h-.72l-.48-.24v-.48Z"/>
    <path class="cls-1" d="m73.44,59.76l.72.48-.24.48-.72-.24.24-.72Z"/>
    <path class="cls-1" d="m135.36,59.76c.86.43.28-.13.72.72h-.72v-.72Z"/>
    <path class="cls-1" d="m17.28,60c.49.43.17,0,.48.72h-.48v-.72Z"/>
    <path class="cls-1" d="m23.04,60l.48.48c-.46-.33-.14-.02-.48-.48Z"/>
    <path class="cls-1" d="m60.48,60h.96v.72l-.48.24-.48-.24v-.72Z"/>
    <path class="cls-1" d="m80.16,60h.72l-.48.72-.48-.24.24-.48Z"/>
    <path class="cls-1" d="m105.36,60h.48c-.33.46-.02.14-.48.48v-.48Z"/>
    <path class="cls-1" d="m130.32,60h.96v.96h-.72l-.48-.48.24-.48Z"/>
    <path class="cls-1" d="m1.2,60.48l.72.48-.48.48-.48-.48.24-.48Z"/>
    <path class="cls-1" d="m99.12,60.48l.24.48h-.48l.24-.48Z"/>
    <path class="cls-1" d="m111.84,60.48h.72l-.48.48-.24-.48Z"/>
    <path class="cls-1" d="m74.64,60.72l.72.48v.24c-.96-.34-.43-.1-.72-.72Z"/>
    <path class="cls-1" d="m90.96,60.72l.24.48-.24-.48Z"/>
    <path class="cls-1" d="m85.2,60.96h.48c-.42.23-.05.22-.48,0Z"/>
    <path class="cls-1" d="m93.6,60.96h.72v.24l-.72.24v-.48Z"/>
    <path class="cls-1" d="m9.6,61.2l.96.48-.24.72h-.24c-.31-.51-.3-.35-.48-1.2Z"/>
    <path class="cls-1" d="m127.92,61.44c.86.43.28-.13.72.72h-.24l-.48-.72Z"/>
    <path class="cls-1" d="m2.64,61.68h.48c-.33.46-.02.14-.48.48v-.48Z"/>
    <path class="cls-1" d="m1.2,61.92c.86.43.28-.13.72.72h-.72v-.72Z"/>
    <path class="cls-1" d="m98.88,61.92l.48.96h-.24l-.24-.96Z"/>
    <path class="cls-1" d="m129.6,62.16c.7.56.7.81.72,1.44l-.48-.72-.24-.72Z"/>
    <path class="cls-1" d="m30.48,62.4c.58.98.56,1.07.24,1.92l-.48-.24c.08-.56.16-1.12.24-1.68Z"/>
    <path class="cls-1" d="m57.84,62.4c.63.43.33.02.24.72h-.24v-.72Z"/>
    <path class="cls-1" d="m69.12,62.4c.87.15.73.1,1.2.48v.24l-1.2.24v-.96Z"/>
    <path class="cls-1" d="m144.72,62.64l.24.48h-.48l.24-.48Z"/>
    <path class="cls-1" d="m22.8,62.88c.24.72.17.64-.24,1.2l-.48-.96.72-.24Z"/>
    <path class="cls-1" d="m96.24,62.88h.72l-.48.72h-.24v-.72Z"/>
    <path class="cls-1" d="m120.24,62.88h.72v.96h-.72v-.96Z"/>
    <path class="cls-1" d="m.48,63.12h.48c-.43.49,0,.17-.72.48l.24-.48Z"/>
    <path class="cls-1" d="m25.2,63.12c.73.46.39.05.72.96-.58-.46-.39-.15-.72-.96Z"/>
    <path class="cls-1" d="m60.96,63.12h.96l-.48.96-.48-.96Z"/>
    <path class="cls-1" d="m87.36,63.12c.49.43.17,0,.48.72h-.48v-.72Z"/>
    <path class="cls-1" d="m97.92,63.12h.96v.24l-.48.48-.48-.72Z"/>
    <path class="cls-1" d="m4.32,63.6c.73.46.39.05.72.96l-.96-.48.24-.48Z"/>
    <path class="cls-1" d="m17.28,63.6c-.15.52.05.44-.72.96l.72-.96Z"/>
    <path class="cls-1" d="m13.44,63.84c.53.49.45.33.72,1.2h-.96l-.48-.48.24-.48.48-.24Z"/>
    <path class="cls-1" d="m55.2,63.84h.72v.24l-.72.24v-.48Z"/>
    <path class="cls-1" d="m68.16,63.84h.48c-.33.46-.02.14-.48.48v-.48Z"/>
    <path class="cls-1" d="m11.52,64.08l.48.48-.96.72.48-1.2Z"/>
    <path class="cls-1" d="m52.8,64.08l.24.48-.24-.48Z"/>
    <path class="cls-1" d="m94.32,64.08l.72.24-.24.72-.72-.48.24-.48Z"/>
    <path class="cls-1" d="m18.24,64.32h.96v.24l-.96-.24Z"/>
    <path class="cls-1" d="m19.92,64.32l.72.72-.48.48c-.43-.63-.38-.39-.24-1.2Z"/>
    <path class="cls-1" d="m72,64.32h.72l-.24.72-.48-.72Z"/>
    <path class="cls-1" d="m124.08,64.32h.96v.24l-.96.48v-.72Z"/>
    <path class="cls-1" d="m129.6,64.32c.75.49.5.11.72,1.2h-.72v-1.2Z"/>
    <path class="cls-1" d="m141.12,64.56h.72l-.48.48-.24-.48Z"/>
    <path class="cls-1" d="m115.92,64.8l.48.72-.48-.72Z"/>
    <path class="cls-1" d="m138.96,64.8l.24.72-.48-.24.24-.48Z"/>
    <path class="cls-1" d="m62.4,65.04h.72l-.48.72h-.24v-.72Z"/>
    <path class="cls-1" d="m77.04,65.04h.72v.96h-.96l.24-.96Z"/>
    <path class="cls-1" d="m86.16,65.04l.72.48-.48.48-.48-.48.24-.48Z"/>
    <path class="cls-1" d="m15.36,65.52h.96v.72c-.92-.32-.5,0-.96-.72Z"/>
    <path class="cls-1" d="m4.08,66h.72l-.48.72-1.44-.48,1.2-.24Z"/>
    <path class="cls-1" d="m34.8,66h.72v.24l-.72.24v-.48Z"/>
    <path class="cls-1" d="m118.32,66l.96.48-.96.24v-.72Z"/>
    <path class="cls-1" d="m13.2,66.24h.48c-.33.46-.02.14-.48.48v-.48Z"/>
    <path class="cls-1" d="m25.92,66.24h.48c-.33.46-.02.14-.48.48v-.48Z"/>
    <path class="cls-1" d="m144.72,66.24l.24.72h-.24l-.24-.24.24-.48Z"/>
    <path class="cls-1" d="m66.24,66.72l.24.48-.24-.48Z"/>
    <path class="cls-1" d="m94.56,66.96l.24.48-.24-.48Z"/>
    <path class="cls-1" d="m40.08,67.2c.87.63.31-.06.48.96h-.24l-.48-.48.24-.48Z"/>
    <path class="cls-1" d="m126.96,67.2h.96l-.48.96-.48-.96Z"/>
    <path class="cls-1" d="m64.56,67.44c.86.43.28-.13.72.72h-.24l-.48-.72Z"/>
    <path class="cls-1" d="m66.96,67.44l.24.48-.24-.48Z"/>
    <path class="cls-1" d="m80.88,67.44c.86.43.28-.13.72.72h-.72v-.72Z"/>
    <path class="cls-1" d="m104.64,67.44l.72.48v.24h-.72v-.72Z"/>
    <path class="cls-1" d="m6.72,67.68l.48.48c-.46-.33-.14-.02-.48-.48Z"/>
    <path class="cls-1" d="m114.72,67.68h.48c-.43.86.13.28-.72.72l.24-.72Z"/>
    <path class="cls-1" d="m120,67.68l.48.48-.24.48-.48-.48.24-.48Z"/>
    <path class="cls-1" d="m32.64,68.16h.48v.24l-.48.48h-.24l.24-.72Z"/>
    <path class="cls-1" d="m3.36,68.4c.86.43.28-.13.72.72h-.72v-.72Z"/>
    <path class="cls-1" d="m25.92,68.4l.48.96-.96-.24.48-.72Z"/>
    <path class="cls-1" d="m13.68,68.64h.72l-.48.72h-.24v-.72Z"/>
    <path class="cls-1" d="m36.24,68.64l1.44.24-.24.72c-.88.12-.74.15-1.44-.24l.24-.72Z"/>
    <path class="cls-1" d="m54.72,68.64l.48.48-.24.24-.24-.72Z"/>
    <path class="cls-1" d="m83.28,68.88c.86.43.28-.13.72.72h-.72v-.72Z"/>
    <path class="cls-1" d="m125.76,68.88l.48.96h-.72l.24-.96Z"/>
    <path class="cls-1" d="m135.12,68.88l.96.72-.72.24-.48-.48.24-.48Z"/>
    <path class="cls-1" d="m18.72,69.12l.48.48c-.46-.33-.14-.02-.48-.48Z"/>
    <path class="cls-1" d="m38.16,69.12c-.1.22.19.16-.24.48l.24-.48Z"/>
    <path class="cls-1" d="m33.6,69.36l.24.48-.24-.48Z"/>
    <path class="cls-1" d="m70.08,69.36l.48.48-.72.24.24-.72Z"/>
    <path class="cls-1" d="m91.2,69.36h.72l-.96.72h-.24v-.48l.48-.24Z"/>
    <path class="cls-1" d="m117.6,69.36l.72.48v.24h-.72v-.72Z"/>
    <path class="cls-1" d="m31.68,69.6c.31.79.45.27,0,.96v-.96Z"/>
    <path class="cls-1" d="m101.76,69.6h.48c-.33.46-.02.14-.48.48v-.48Z"/>
    <path class="cls-1" d="m119.52,69.6h.48c-.42.23-.05.22-.48,0Z"/>
    <path class="cls-1" d="m25.92,69.84c.46.33.14.02.48.48l-.48-.48Z"/>
    <path class="cls-1" d="m42.48,69.84l.96.48-.96.24v-.72Z"/>
    <path class="cls-1" d="m60.96,69.84h.48l-.48,1.44h-.96l.96-1.44Z"/>
    <path class="cls-1" d="m34.8,70.08c.46.33.14.02.48.48l-.48-.48Z"/>
    <path class="cls-1" d="m105.84,70.08h.72l-.24.96h-.24l-.24-.96Z"/>
    <path class="cls-1" d="m33.84,70.32l.48.48c-.46-.33-.14-.02-.48-.48Z"/>
    <path class="cls-1" d="m125.28,70.32h.48c-.33.46-.02.14-.48.48v-.48Z"/>
    <path class="cls-1" d="m10.56,70.56h.96v.72l-.48.24-.72-.48.24-.48Z"/>
    <path class="cls-1" d="m112.32,70.56h.96c-.37,1.01.04.59-.96.96v-.96Z"/>
    <path class="cls-1" d="m141.12,70.56l.48.48c-.46-.33-.14-.02-.48-.48Z"/>
    <path class="cls-1" d="m55.44,71.04l.48.48c-.46-.33-.14-.02-.48-.48Z"/>
    <path class="cls-1" d="m79.68,71.04h.72l-.24.72c-.64.4-1.28.8-1.92,1.2v-.24l.48-1.2.96-.48Z"/>
    <path class="cls-1" d="m18,71.28l.72.48-.48.48-.24-.96Z"/>
    <path class="cls-1" d="m94.8,71.28h.48l-.48.72v-.72Z"/>
    <path class="cls-1" d="m54.24,71.52h.48c-.33.46-.02.14-.48.48v-.48Z"/>
    <path class="cls-1" d="m126.72,71.52c.73.46.39.05.72.96l-.48.24-.48-.48.24-.72Z"/>
    <path class="cls-1" d="m104.16,72.24h.48c-.33.99-.43,1.33-1.2,1.68v-1.2c.73-.3.29,0,.72-.48Z"/>
    <path class="cls-1" d="m109.92,72.24c.73.46.39.05.72.96l-.72.24-.48-.48.48-.72Z"/>
    <path class="cls-1" d="m25.68,72.48c.73.46.39.05.72.96l-.96-.48.24-.48Z"/>
    <path class="cls-1" d="m121.44,72.48l.48.48-.24.24-.48-.24.24-.48Z"/>
    <path class="cls-1" d="m96,72.72c.73.47.25.08.48.72l-.48-.72Z"/>
    <path class="cls-1" d="m.24,72.96h.72c-.27.97-.33.92-.96,1.44l.24-1.44Z"/>
    <path class="cls-1" d="m6.24,73.2h.48l-.48.72v-.72Z"/>
    <path class="cls-1" d="m42.48,73.2l.24.72-.48-.24.24-.48Z"/>
    <path class="cls-1" d="m59.04,73.2c.49.43.17,0,.48.72h-.48v-.72Z"/>
    <path class="cls-1" d="m77.76,73.2l.24.48-.24-.48Z"/>
    <path class="cls-1" d="m74.16,73.68h.96v.72l-.48.24-.72-.24.24-.72Z"/>
    <path class="cls-1" d="m118.56,73.68h.96v.24l-.48.48-.48-.72Z"/>
    <path class="cls-1" d="m126,73.68l.72.48-.72-.48Z"/>
    <path class="cls-1" d="m89.04,73.92l.72.24v.48l-.72.24h-.24l.24-.96Z"/>
    <path class="cls-1" d="m114.48,73.92l.24.48-.24-.48Z"/>
    <path class="cls-1" d="m10.08,74.16l.24.48-.24-.48Z"/>
    <path class="cls-1" d="m34.32,74.16h.48c-.33.46-.02.14-.48.48v-.48Z"/>
    <path class="cls-1" d="m17.76,74.4c.73.47.25.08.48.72l-.48-.72Z"/>
    <path class="cls-1" d="m42.96,74.4h.72v.96h-.96l-.24-.48.48-.48Z"/>
    <path class="cls-1" d="m85.92,74.4c.82.32.5.15.96.72l-.96.24-.48-.48v-.24l.48-.24Z"/>
    <path class="cls-1" d="m98.88,74.64l.72.48h-.72v-.48Z"/>
    <path class="cls-1" d="m22.8,75.12l.48.48-.24.48-.48-.48.24-.48Z"/>
    <path class="cls-1" d="m28.08,75.12l.72.24v.96h-.96l.24-1.2Z"/>
    <path class="cls-1" d="m36.24,75.36l.48.96-.48.24-.48-.96.48-.24Z"/>
    <path class="cls-1" d="m81.36,75.36h.72v.48l-.72.24h-.24l.24-.72Z"/>
    <path class="cls-1" d="m96,75.36l.96.48v.48h-.72c-.33-.46-.02-.14-.48-.48l.24-.48Z"/>
    <path class="cls-1" d="m17.04,75.84h.96v.72c-.92-.32-.5,0-.96-.72Z"/>
    <path class="cls-1" d="m75.12,75.84l.96.48-.24.48-.48-.24-.24-.72Z"/>
    <path class="cls-1" d="m132.48,75.84c.56.16,1.12.32,1.68.48l-.24.48-1.44-.24v-.72Z"/>
    <path class="cls-1" d="m128.4,76.08c.73.46.39.05.72.96l-.48.24c-.43-.63-.38-.39-.24-1.2Z"/>
    <path class="cls-1" d="m5.28,76.32h.96v.96c-1.01-.37-.59.04-.96-.96Z"/>
    <path class="cls-1" d="m116.16,76.32l.72.96h-.72v-.96Z"/>
    <path class="cls-1" d="m33.84,76.8l.96.48-.48.48h-.24l-.24-.96Z"/>
    <path class="cls-1" d="m56.4,76.8c.56.4,1.12.8,1.68,1.2l-.48.96c-.64-.24-1.28-.48-1.92-.72l.72-1.44Z"/>
    <path class="cls-1" d="m58.8,76.8l.48.48-.24.48-.48-.48.24-.48Z"/>
    <path class="cls-1" d="m108.48,76.8h.72l-.48.48-.24-.48Z"/>
    <path class="cls-1" d="m118.08,77.28l.48.48-.48.24v-.72Z"/>
    <path class="cls-1" d="m10.56,77.52l.96.24v.96c-.88-.25-.71-.2-1.2-.72l.24-.48Z"/>
    <path class="cls-1" d="m15.12,77.52h.72v.72c-1.15.34-.72.51-1.68.96l.48-.72.48-.96Z"/>
    <path class="cls-1" d="m45.84,77.52h.72l-.48.72h-.24v-.72Z"/>
    <path class="cls-1" d="m90.24,77.52l.96.48-.96.24v-.72Z"/>
    <path class="cls-1" d="m0,77.76c.63.43.33.01.24.72h-.24v-.72Z"/>
    <path class="cls-1" d="m3.12,77.76l1.2.24-.72.24-.48-.48Z"/>
    <path class="cls-1" d="m53.04,77.76h.72l-.48.48-.24-.48Z"/>
    <path class="cls-1" d="m93.12,77.76l.48.48h-.72l.24-.48Z"/>
    <path class="cls-1" d="m137.52,77.76h.96v.24l-.24.48h-.24l-.72-.24.24-.48Z"/>
    <path class="cls-1" d="m131.52,78c.43.78.63.48-.24.96l.24-.96Z"/>
    <path class="cls-1" d="m120,78.24l.24.48-.24-.48Z"/>
    <path class="cls-1" d="m40.8,78.48l.96.48v.72c-1.37.15-1.33.61-2.16,0,.43-.46.81-.67,1.2-1.2Z"/>
    <path class="cls-1" d="m118.08,78.48h.72v.48l-.72.24v-.72Z"/>
    <path class="cls-1" d="m74.4,78.72c.73.46.39.05.72.96h-.72v-.96Z"/>
    <path class="cls-1" d="m109.68,78.72l.24.72-.48-.24.24-.48Z"/>
    <path class="cls-1" d="m9.6,78.96c.86.43.28-.13.72.72h-.72v-.72Z"/>
    <path class="cls-1" d="m111.12,78.96l1.2.48-.72.72c-.66-.58-.7-.25-.48-1.2Z"/>
    <path class="cls-1" d="m27.84,79.2l.48.96h-.96c.21-.63-.1-.84.48-.48v-.48Z"/>
    <path class="cls-1" d="m113.28,79.2l.24.48-.24-.48Z"/>
    <path class="cls-1" d="m26.16,79.68c.46.33.14.02.48.48l-.48-.48Z"/>
    <path class="cls-1" d="m138.24,79.68h1.2v.96c-.64.08-1.28.16-1.92.24v-.24l.72-.96Z"/>
    <path class="cls-1" d="m56.64,79.92c.86.43.28-.13.72.72h-.24l-.48-.72Z"/>
    <path class="cls-1" d="m98.88,79.92l.72.48-.48.48h-.24v-.96Z"/>
    <path class="cls-1" d="m6.96,80.16h.48c-.33.46-.02.14-.48.48v-.48Z"/>
    <path class="cls-1" d="m58.8,80.16c-.1.22.19.16-.24.48l.24-.48Z"/>
    <path class="cls-1" d="m65.04,80.16l.96.72v.24h-.72l-.48-.48.24-.48Z"/>
    <path class="cls-1" d="m34.08,80.4h.96l-.48.96-.72-.48.24-.48Z"/>
    <path class="cls-1" d="m75.36,80.4l.24.48-.24-.48Z"/>
    <path class="cls-1" d="m126.48,80.4h.72v.24l-.72.24v-.48Z"/>
    <path class="cls-1" d="m96.24,80.64l.48.48-.24.24-.24-.72Z"/>
    <path class="cls-1" d="m111.84,80.64c.49.43.17,0,.48.72h-.48v-.72Z"/>
    <path class="cls-1" d="m120.72,80.64h.48c-.33.46-.02.14-.48.48v-.48Z"/>
    <path class="cls-1" d="m43.92,80.88c.49.43.17,0,.48.72h-.48v-.72Z"/>
    <path class="cls-1" d="m48.48,81.12c.8.08,1.6.16,2.4.24v.48h-.48c-1.17.83-1.78-.36-1.92-.72Z"/>
    <path class="cls-1" d="m107.76,81.12l.96.48v.24c-.54.33-.47.35-1.44.48l.48-1.2Z"/>
    <path class="cls-1" d="m121.92,81.12l.48.48-.24.24-.24-.72Z"/>
    <path class="cls-1" d="m20.16,81.36l.72.24-.24.48-1.2.48.72-1.2Z"/>
    <path class="cls-1" d="m88.56,81.36l.72.24c-.37,1.01.04.59-.96.96l.24-1.2Z"/>
    <path class="cls-1" d="m128.88,81.36c.86.43.28-.13.72.72h-.72v-.72Z"/>
    <path class="cls-1" d="m114.72,81.6l.72.24-.48.96h-.24l-.24-.72.24-.48Z"/>
    <path class="cls-1" d="m99.6,81.84c.32.24.64.48.96.72l-.48.48c-.66-.58-.7-.25-.48-1.2Z"/>
    <path class="cls-1" d="m109.92,81.84h.48c-.33.46-.02.14-.48.48v-.48Z"/>
    <path class="cls-1" d="m57.36,82.08h.48c-.33.46-.02.14-.48.48v-.48Z"/>
    <path class="cls-1" d="m66.96,82.08c.63.43.33.02.24.72h-.24v-.72Z"/>
    <path class="cls-1" d="m93.84,82.08l.96.48-.96.48v-.96Z"/>
    <path class="cls-1" d="m139.2,82.32h.96v.96h-.72l-.24-.96Z"/>
    <path class="cls-1" d="m25.2,82.56h.48c-.33.46-.02.14-.48.48v-.48Z"/>
    <path class="cls-1" d="m84.24,82.56l.72.72v.24l-.96-.48.24-.48Z"/>
    <path class="cls-1" d="m103.68,82.56h.48c-.42.23-.05.22-.48,0Z"/>
    <path class="cls-1" d="m.96,82.8l.48.48c-.46-.33-.14-.02-.48-.48Z"/>
    <path class="cls-1" d="m5.76,82.8h.72l.48.96h-.24l-.96-.24v-.72Z"/>
    <path class="cls-1" d="m47.76,82.8c.46.33.14.02.48.48l-.48-.48Z"/>
    <path class="cls-1" d="m79.68,82.8c.86.43.28-.13.72.72h-.72v-.72Z"/>
    <path class="cls-1" d="m27.36,83.04c.49.33.39.27.72.72l-1.2.24.48-.96Z"/>
    <path class="cls-1" d="m52.32,83.04h.72l-.24.72-.48-.72Z"/>
    <path class="cls-1" d="m14.4,83.52h.72l-.48.72h-.24v-.72Z"/>
    <path class="cls-1" d="m18.96,83.52c.49.43.17,0,.48.72h-.48v-.72Z"/>
    <path class="cls-1" d="m139.92,83.52l.48.48-.72.24.24-.72Z"/>
    <path class="cls-1" d="m1.92,84.24l.24.48-.24-.48Z"/>
    <path class="cls-1" d="m29.04,84.24h.48c-.33.46-.02.14-.48.48v-.48Z"/>
    <path class="cls-1" d="m81.36,84.24c.89.8,1.04.87.24,1.68l-.48-.24.24-1.44Z"/>
    <path class="cls-1" d="m96,84.24h.72c-.25.88-.2.71-.72,1.2h-.24v-.24l.24-.96Z"/>
    <path class="cls-1" d="m24.48,84.48h.48c-.33.46-.02.14-.48.48v-.48Z"/>
    <path class="cls-1" d="m33.84,84.48c.5.47.25.09.48.96h-.24l-.48-.48.24-.48Z"/>
    <path class="cls-1" d="m48.96,84.48h.48l-.48.72v-.72Z"/>
    <path class="cls-1" d="m93.12,84.48c.65.53.46.17.72,1.2h-.72l-.48-.48.48-.72Z"/>
    <path class="cls-1" d="m21.6,84.72c1.01.37.59-.04.96.96l-.48.24-.48-.24v-.96Z"/>
    <path class="cls-1" d="m65.28,84.72c.63.43.33.01.24.72h-.24v-.72Z"/>
    <path class="cls-1" d="m74.16,84.72c.51.75.44.49-.24,1.2l.24-1.2Z"/>
    <path class="cls-1" d="m79.44,84.72c.53.72.46.48,0,1.2l-.24-.72.24-.48Z"/>
    <path class="cls-1" d="m141.6,84.72c.92.32.5,0,.96.72-.92-.32-.5,0-.96-.72Z"/>
    <path class="cls-1" d="m19.92,84.96l.96.24v.24l-.24.48-.96-.24.24-.72Z"/>
    <path class="cls-1" d="m38.16,85.44h.48c-.33.46-.02.14-.48.48v-.48Z"/>
    <path class="cls-1" d="m90.72,85.44h.96v.72l-1.2-.24.24-.48Z"/>
    <path class="cls-1" d="m109.44,85.44l.24.48-.24-.48Z"/>
    <path class="cls-1" d="m138,85.44h.96l-.48.48-.48-.48Z"/>
    <path class="cls-1" d="m88.56,85.68l.72.48h-.72v-.48Z"/>
    <path class="cls-1" d="m141.6,85.68h.96l-.48,1.2-.72-.72.24-.48Z"/>
    <path class="cls-1" d="m9.36,85.92c.64.34.21.13,0,.72v-.72Z"/>
    <path class="cls-1" d="m75.36,85.92c.49.43.17,0,.48.72h-.24l-.48-.24v-.24l.24-.24Z"/>
    <path class="cls-1" d="m139.92,85.92l.96.72h-1.2l.24-.72Z"/>
    <path class="cls-1" d="m.96,86.16l.48.48-.24.48-.48-.48.24-.48Z"/>
    <path class="cls-1" d="m95.52,86.16h.48c-.33.46-.02.14-.48.48v-.48Z"/>
    <path class="cls-1" d="m131.04,86.16h.48c-.33.46-.02.14-.48.48v-.48Z"/>
    <path class="cls-1" d="m6.24,86.4h.72v.96h-.72v-.96Z"/>
    <path class="cls-1" d="m128.88,86.4l.48.48h-.72l.24-.48Z"/>
    <path class="cls-1" d="m112.8,86.64h.48c-.43.86.13.28-.72.72l.24-.72Z"/>
    <path class="cls-1" d="m119.28,86.64c.95.41.67.13.96,1.2l-.48.24c-.66-.66-.61-.49-.48-1.44Z"/>
    <path class="cls-1" d="m66.72,86.88l.72.48-.48.48h-.24l-.24-.72.24-.24Z"/>
    <path class="cls-1" d="m109.44,86.88l.24.48-.24-.48Z"/>
    <path class="cls-1" d="m32.16,87.12l.24.48-.24-.48Z"/>
    <path class="cls-1" d="m136.56,87.12l.48.48-.48.24v-.72Z"/>
    <path class="cls-1" d="m24,87.36h.48l-.48.96v-.96Z"/>
    <path class="cls-1" d="m40.32,87.36l.48.48-.24.24-.24-.72Z"/>
    <path class="cls-1" d="m47.52,87.6h.72l.48.96h-.96l-.48-.24v-.24l.24-.48Z"/>
    <path class="cls-1" d="m92.64,87.84l.48.24-.72.48.24-.72Z"/>
    <path class="cls-1" d="m100.08,87.84l.24.48-.24-.48Z"/>
    <path class="cls-1" d="m41.28,88.08c.66.72.27.27,0,1.2h-.48v-.96l.48-.24Z"/>
    <path class="cls-1" d="m63.36,88.08l.48,1.2h-.48v-1.2Z"/>
    <path class="cls-1" d="m8.64,88.32h.48c-.42.23-.05.22-.48,0Z"/>
    <path class="cls-1" d="m59.76,88.32h.72v.96c-.82-.56-.55-.29-.72-.96Z"/>
    <path class="cls-1" d="m138.72,88.32h.48c-.33.46-.02.14-.48.48v-.48Z"/>
    <path class="cls-1" d="m6,88.8c.46.33.14.02.48.48l-.48-.48Z"/>
    <path class="cls-1" d="m67.92,88.8h.72v.72l-.96-.24.24-.48Z"/>
    <path class="cls-1" d="m12,89.04l.24.48-.24-.48Z"/>
    <path class="cls-1" d="m86.16,89.04h.48c-.42.23-.05.22-.48,0Z"/>
    <path class="cls-1" d="m76.56,89.28c.92.32.5,0,.96.72h-.96v-.72Z"/>
    <path class="cls-1" d="m145.44,89.28h.72l-.48.72h-.24v-.72Z"/>
    <path class="cls-1" d="m24.24,89.76l.96.48-.48.48-.72-.48.24-.48Z"/>
    <path class="cls-1" d="m31.44,89.76c.46.33.39.23.72.72-.96-.34-.43-.1-.72-.72Z"/>
    <path class="cls-1" d="m49.92,89.76h.96v.72l-.72.48-.48-.24v-.24l.24-.72Z"/>
    <path class="cls-1" d="m106.08,89.76c.63.43.33.01.24.72h-.24v-.72Z"/>
    <path class="cls-1" d="m139.2,89.76l.72.48-.48.48h-.24v-.96Z"/>
    <path class="cls-1" d="m52.08,90h.72c-.25.88-.2.71-.72,1.2v-1.2Z"/>
    <path class="cls-1" d="m70.32,90h.48c-.33.46-.02.14-.48.48v-.48Z"/>
    <path class="cls-1" d="m123.84,90h.48c-.43.86.13.28-.72.72l.24-.72Z"/>
    <path class="cls-1" d="m40.08,90.24l.96.72-.24.48h-.96l-.24-.48.48-.72Z"/>
    <path class="cls-1" d="m20.16,90.48c.49.43.17,0,.48.72h-.24l-.48-.24.24-.48Z"/>
    <path class="cls-1" d="m69.12,90.48c.28.68.18.24-.24.72l.24-.72Z"/>
    <path class="cls-1" d="m125.04,90.48c.72.32,1.44.64,2.16.96l-.48.48c-.99-.42-1.72-.55-1.68-1.44Z"/>
    <path class="cls-1" d="m130.8,90.48c.86.43.28-.13.72.72h-.72v-.72Z"/>
    <path class="cls-1" d="m15.36,90.72l.96.48-.96.24v-.72Z"/>
    <path class="cls-1" d="m87.36,90.72l.48.48h-.72l.24-.48Z"/>
    <path class="cls-1" d="m75.12,90.96h1.44l.24.72c-.49.53-.33.45-1.2.72l-.72-.96.24-.48Z"/>
    <path class="cls-1" d="m117.84,90.96c.49.43.17,0,.48.72h-.48v-.72Z"/>
    <path class="cls-1" d="m128.4,90.96h.72l-.48.72h-.24v-.72Z"/>
    <path class="cls-1" d="m119.76,91.2l.24.48-.24-.48Z"/>
    <path class="cls-1" d="m6,91.44l.24.72h-.24l-.24-.24.24-.48Z"/>
    <path class="cls-1" d="m48.72,91.68c-.1.22.19.16-.24.48l.24-.48Z"/>
    <path class="cls-1" d="m122.64,91.68c.73.46.39.05.72.96l-.48.24c-.43-.63-.38-.39-.24-1.2Z"/>
    <path class="cls-1" d="m141.36,91.68c.58.42.4.25.72.96h-.96l.24-.96Z"/>
    <path class="cls-1" d="m13.44,91.92c.5.47.25.09.48.96h-.24l-.24-.96Z"/>
    <path class="cls-1" d="m43.68,91.92c.4.5.37.47.48,1.44l-.96-.48.48-.96Z"/>
    <path class="cls-1" d="m54.72,91.92h.72l-.48.48-.24-.48Z"/>
    <path class="cls-1" d="m107.04,91.92h.48c-.43.49,0,.17-.72.48l.24-.48Z"/>
    <path class="cls-1" d="m37.44,92.16l.48.48-.24,1.44h-.24c-.73-.6-1.46-.75-1.92-1.68,1.06.06,1.1.21,1.92-.24Z"/>
    <path class="cls-1" d="m136.08,92.4c.27.54.38.43-.24,1.2h-.24l.48-1.2Z"/>
    <path class="cls-1" d="m72.48,92.64c.73.46.39.05.72.96h-.24l-.72-.48.24-.48Z"/>
    <path class="cls-1" d="m92.64,92.64h1.92v.72h-.48l-1.2.48c-.43-.63-.38-.39-.24-1.2Z"/>
    <path class="cls-1" d="m118.32,92.64h.72l-.48.48-.24-.48Z"/>
    <path class="cls-1" d="m16.8,92.88l.96.48-.24.48h-.24l-.48-.96Z"/>
    <path class="cls-1" d="m28.32,92.88h.48c-.42.23-.05.22-.48,0Z"/>
    <path class="cls-1" d="m32.16,92.88l.72.24-.24.72h-.24l-.96-.48h.48l.24-.48Z"/>
    <path class="cls-1" d="m103.44,93.12h.48c-.33.46-.02.14-.48.48v-.48Z"/>
    <path class="cls-1" d="m22.08,93.36l.24.48-.24-.48Z"/>
    <path class="cls-1" d="m85.44,93.36l.24.48-.24-.48Z"/>
    <path class="cls-1" d="m107.76,93.36c1.01.37.59-.04.96.96h-.96v-.96Z"/>
    <path class="cls-1" d="m8.16,93.6l.24.72h-.24l-.24-.24.24-.48Z"/>
    <path class="cls-1" d="m90.72,93.6h.48c-.33.46-.02.14-.48.48v-.48Z"/>
    <path class="cls-1" d="m79.44,93.84h.48c-.33.46-.02.14-.48.48v-.48Z"/>
    <path class="cls-1" d="m12,94.08c.58.42.4.25.72.96l-.72-.96Z"/>
    <path class="cls-1" d="m43.92,94.08h.48c-.33.46-.02.14-.48.48v-.48Z"/>
    <path class="cls-1" d="m15.84,94.56h.72v.24l-.72.24v-.48Z"/>
    <path class="cls-1" d="m52.8,94.8c.28.68.18.24-.24.72l.24-.72Z"/>
    <path class="cls-1" d="m115.2,94.8h.48l-.24.72h-.24l-.24-.24v-.24l.24-.24Z"/>
    <path class="cls-1" d="m144.24,94.8l.96.48v.72l-.48.24-.72-.96.24-.48Z"/>
    <path class="cls-1" d="m23.04,95.04h.96v.72h-.72l-.24-.72Z"/>
    <path class="cls-1" d="m64.56,95.04l.72,1.44-.96-.24.24-1.2Z"/>
    <path class="cls-1" d="m85.44,95.04l.48.48-.24.24-.24-.72Z"/>
    <path class="cls-1" d="m96.48,95.04c.49.43.17,0,.48.72h-.48v-.72Z"/>
    <path class="cls-1" d="m130.32,95.04h.72l-.24.72-.48-.72Z"/>
    <path class="cls-1" d="m141.84,95.04h.48c-.33.46-.02.14-.48.48v-.48Z"/>
    <path class="cls-1" d="m42.96,95.28l.24.48-.24-.48Z"/>
    <path class="cls-1" d="m108.72,95.28h.48v.72h-1.2l.24-.48.48-.24Z"/>
    <path class="cls-1" d="m25.92,95.52c1.6.53,1.31.39,1.68,1.68-.8-.4-1.24-.96-1.68-1.68Z"/>
    <path class="cls-1" d="m39.12,95.52l.24.48-.24-.48Z"/>
    <path class="cls-1" d="m76.8,95.52l.72.48-.24.48-.48-.48v-.48Z"/>
    <path class="cls-1" d="m135.84,95.52l.96.24-.48.72-.48-.24v-.72Z"/>
    <path class="cls-1" d="m131.52,95.76h.96v.72c-.92-.32-.5,0-.96-.72Z"/>
    <path class="cls-1" d="m138.48,95.76l.24.48-.24-.48Z"/>
    <path class="cls-1" d="m8.16,96.96h.72l-.48.48-.24-.48Z"/>
    <path class="cls-1" d="m25.92,96.96h.48c-.42.23-.05.22-.48,0Z"/>
    <path class="cls-1" d="m31.2,96.96h.48c-.43.86.13.28-.72.72l.24-.72Z"/>
    <path class="cls-1" d="m106.56,96.96l.24.48-.24-.48Z"/>
    <path class="cls-1" d="m134.64,96.96l1.2.24-.48.72-.72-.96Z"/>
    <path class="cls-1" d="m139.68,96.96c.92.32.5,0,.96.72-.92-.32-.5,0-.96-.72Z"/>
    <path class="cls-1" d="m143.28,96.96c.49.43.17,0,.48.72h-.48v-.72Z"/>
    <path class="cls-1" d="m.96,97.2l.96.72c-1.07-.31-.48.16-.96-.72Z"/>
    <path class="cls-1" d="m63.12,97.2l.48.48h-.72l.24-.48Z"/>
    <path class="cls-1" d="m68.88,97.44l.96.48c-.74-.07-1.45.23-.96-.48Z"/>
    <path class="cls-1" d="m91.68,97.44h.72v.24l-.72.24v-.48Z"/>
    </g>
  </defs>
  <use href="#binlodTileCell"/>
  <use href="#binlodTileCell" transform="translate(293.76 0) scale(-1 1)"/>
  <use href="#binlodTileCell" transform="translate(0 195.84) scale(1 -1)"/>
  <use href="#binlodTileCell" transform="translate(293.76 195.84) scale(-1 -1)"/>
</svg>
